<svg width="94" height="63" viewBox="0 0 94 63" fill="none" xmlns="http://www.w3.org/2000/svg">
<path fill-rule="evenodd" clip-rule="evenodd" d="M91.1946 5.07199C91.1946 3.58622 89.8183 2.38184 88.1207 2.38184H5.07427C3.37628 2.38184 2 3.58622 2 5.07199V57.3188C2 58.8044 3.37628 60.0089 5.07427 60.0089H88.1203C89.8179 60.0089 91.1946 58.8044 91.1946 57.3188V5.07199Z" stroke="#E1AC32" stroke-width="4"/>
<path fill-rule="evenodd" clip-rule="evenodd" d="M25.1288 29.855C29.596 29.855 33.2173 26.6896 33.2173 22.7849C33.2173 18.8803 29.596 15.7148 25.1288 15.7148C20.6617 15.7148 17.0403 18.8803 17.0403 22.7849C17.0403 26.6896 20.6617 29.855 25.1288 29.855Z" stroke="#E1AC32" stroke-width="4"/>
<path d="M21.3405 60.0091L48.1328 27.018L59.2109 40.0847L73.4581 20.5L91.1951 43.0475" stroke="#E1AC32" stroke-width="4"/>
</svg>
